<svg width="44" height="44" viewBox="0 0 44 44" fill="none" xmlns="http://www.w3.org/2000/svg">
<path d="M22.0345 8.86797L33.0001 16.7398V35.7492H27.5001V24.7492H16.5001V35.7492H11.0001V16.7398L22.0345 8.86797V8.86797ZM22.0345 5.80859C21.7595 5.80859 21.4845 5.87734 21.2439 6.04922L4.46885 18.0117C3.91885 18.3898 4.19385 19.2492 4.88135 19.2492H8.2501V37.8117C8.2501 38.1898 8.55948 38.4992 8.9376 38.4992H18.5626C18.9407 38.4992 19.2501 38.1898 19.2501 37.8117V27.4992H24.7501V37.8117C24.7501 38.1898 25.0595 38.4992 25.4376 38.4992H35.0626C35.4407 38.4992 35.7501 38.1898 35.7501 37.8117V19.2492H39.1189C39.772 19.2492 40.047 18.3898 39.5313 18.0117L22.8251 6.08359C22.5845 5.91172 22.3095 5.80859 22.0345 5.80859V5.80859Z" fill="black"/>
</svg>
