<svg width="44" height="44" viewBox="0 0 44 44" fill="none" xmlns="http://www.w3.org/2000/svg">
<path d="M39.497 18.0121L22.8251 6.08398C22.3439 5.74023 21.6907 5.74023 21.2439 6.08398L4.46885 18.0121C3.91885 18.3902 4.19385 19.2496 4.88135 19.2496H8.2501V37.8121C8.2501 38.1902 8.55948 38.4996 8.9376 38.4996H17.1876C17.5657 38.4996 17.8751 38.1902 17.8751 37.8121V27.4996H26.1251V37.8121C26.1251 38.1902 26.4345 38.4996 26.8126 38.4996H35.0626C35.4407 38.4996 35.7501 38.1902 35.7501 37.8121V19.2496H39.1189C39.772 19.2496 40.047 18.3902 39.497 18.0121V18.0121Z" fill="black"/>
</svg>
