<svg width="44" height="44" viewBox="0 0 44 44" fill="none" xmlns="http://www.w3.org/2000/svg">
<path d="M22 8.28516C25.025 8.28516 27.5 10.7602 27.5 13.7852C27.5 16.8102 25.025 19.2852 22 19.2852C20.4531 19.2852 19.0437 18.6664 17.9781 17.532C16.9125 16.3977 16.3969 14.9539 16.5 13.407C16.6719 10.6914 18.9406 8.45703 21.6562 8.31953C21.7594 8.28516 21.8625 8.28516 22 8.28516V8.28516ZM22 27.5008C24.3031 27.5008 28.05 28.0852 31.2812 29.357C34.0312 30.457 35.75 31.832 35.75 32.9664V35.7508H8.25V32.9664C8.25 31.832 9.96875 30.457 12.7188 29.357C15.95 28.0852 19.6969 27.5008 22 27.5008ZM22 5.53516H21.5187C17.3937 5.77578 14.025 9.11016 13.75 13.2008C13.4406 18.0133 17.2219 22.0008 21.9656 22.0008C26.5031 22.0008 30.2156 18.2883 30.2156 13.7508C30.2156 9.21328 26.5375 5.53516 22 5.53516ZM22 24.7508C16.5 24.7508 5.5 27.5008 5.5 32.9664V37.0914C5.5 37.8477 6.11875 38.4664 6.875 38.4664H37.125C37.8813 38.4664 38.5 37.8477 38.5 37.0914V32.932C38.5 27.5008 27.5 24.7508 22 24.7508Z" fill="black"/>
</svg>
