<svg width="44" height="44" viewBox="0 0 44 44" fill="none" xmlns="http://www.w3.org/2000/svg">
<path d="M33 24.75C33.5844 24.75 34.0656 24.3719 34.2719 23.7875L38.4656 10.1062C38.7406 9.2125 38.1219 8.25 37.1938 8.25H10.8625L10.0719 5.5L9.28125 2.75H2.75V5.5H7.25313L8.04375 8.25L12.3406 23.7875C12.4094 23.9937 12.5125 24.1656 12.65 24.3031L10.4156 27.8781C10.1406 28.1187 9.96875 28.4969 9.96875 28.875C9.96875 29.6313 10.5875 30.25 11.3438 30.25H35.75V27.5H13.8875L15.6063 24.75H33V24.75Z" fill="black"/>
<path d="M11 35.75C11 36.4793 11.2897 37.1788 11.8055 37.6945C12.3212 38.2103 13.0207 38.5 13.75 38.5C14.4793 38.5 15.1788 38.2103 15.6945 37.6945C16.2103 37.1788 16.5 36.4793 16.5 35.75C16.5 35.0207 16.2103 34.3212 15.6945 33.8055C15.1788 33.2897 14.4793 33 13.75 33C13.0207 33 12.3212 33.2897 11.8055 33.8055C11.2897 34.3212 11 35.0207 11 35.75V35.75Z" fill="black"/>
<path d="M30.25 35.75C30.25 36.4793 30.5397 37.1788 31.0555 37.6945C31.5712 38.2103 32.2707 38.5 33 38.5C33.7293 38.5 34.4288 38.2103 34.9445 37.6945C35.4603 37.1788 35.75 36.4793 35.75 35.75C35.75 35.0207 35.4603 34.3212 34.9445 33.8055C34.4288 33.2897 33.7293 33 33 33C32.2707 33 31.5712 33.2897 31.0555 33.8055C30.5397 34.3212 30.25 35.0207 30.25 35.75Z" fill="black"/>
</svg>
